<svg width="256" height="256" viewBox="0 0 256 256" fill="none" xmlns="http://www.w3.org/2000/svg">
<rect width="256" height="256" fill="#222222"/>
<path d="M50.56 168.56V151.064C52.792 152.288 55.456 153.08 58.12 153.08C69.568 153.08 77.2 145.448 77.2 133.928C77.2 123.488 68.632 114.92 57.4 114.92C45.88 114.92 37.6 122.912 37.6 133.928V168.56H50.56ZM57.4 140.912C53.296 140.912 50.56 137.744 50.56 134C50.56 130.184 53.296 127.088 57.4 127.088C61.504 127.088 64.24 130.184 64.24 134C64.24 137.744 61.504 140.912 57.4 140.912ZM101.672 153.008C109.736 153.008 115.856 148.976 118.952 142.28L109.016 137.312C107.72 140.12 104.984 141.992 101.528 141.992C97.5676 141.992 94.8316 139.832 93.9676 136.232H119.024V132.992C119.024 123.344 112.472 114.56 100.664 114.56C89.2876 114.56 81.5116 123.2 81.5116 133.568C81.5116 145.376 90.1516 153.008 101.672 153.008ZM94.5436 129.536C95.3356 127.448 97.4236 125.648 100.52 125.648C103.544 125.648 105.56 127.52 106.136 129.536H94.5436ZM145.939 153.152C148.387 153.152 151.699 152.648 153.499 151.64V140.192C151.771 141.128 148.963 141.632 147.163 141.632C143.779 141.632 141.691 139.688 141.691 136.232V126.8H153.499V116H141.691V107H128.731V116H122.611V126.8H128.731V136.664C128.731 146.24 134.203 153.152 145.939 153.152ZM160.681 99.44V152H173.641V99.44H160.681ZM200.663 153.08C211.895 153.08 220.463 144.44 220.463 133.928C220.463 123.488 211.895 114.848 200.663 114.848C189.431 114.848 180.863 123.488 180.863 133.928C180.863 144.44 189.431 153.08 200.663 153.08ZM200.663 140.912C196.559 140.912 193.823 137.744 193.823 134C193.823 130.184 196.559 127.016 200.663 127.016C204.767 127.016 207.503 130.184 207.503 134C207.503 137.744 204.767 140.912 200.663 140.912Z" fill="white"/>
</svg>
